#N canvas 401 210 928 999 12;
#X obj 58 13 tgl 15 0 empty empty empty 17 7 0 10 -262144 -1 -1 1 1
;
#X msg 57 48 \; pd dsp \$1;
#X obj 450 390 adc~;
#X obj 492 587 unauthorized/mp3cast~;
#X msg 704 288 shoutcast;
#X msg 659 200 connect localhost 8000;
#X msg 738 427 icecast2;
#X msg 706 340 mountpoint live2.mp3;
#X msg 743 491 disconnect;
#X msg 684 241 passwd qwerty;
#X obj 816 104 loadbang;
#X connect 0 0 1 0;
#X connect 2 0 3 0;
#X connect 2 1 3 1;
#X connect 4 0 3 0;
#X connect 5 0 3 0;
#X connect 6 0 3 0;
#X connect 7 0 3 0;
#X connect 8 0 3 0;
#X connect 9 0 3 0;
