#N canvas 571 167 928 999 10;
#X msg 162 289 \; pd dsp\$1;
#X obj 236 433 adc~;
#X obj 132 171 loadbang;
#X obj 264 568 dac~;
#X obj 264 507 *~;
#X floatatom 316 443 5 0 0 0 - - -, f 5;
#X obj 411 305 unpack f f f;
#X obj 538 527 print w1;
#X obj 671 516 print w2;
#X obj 668 373 print w3;
#X obj 375 156 netreceive 15001;
#X connect 1 0 4 0;
#X connect 2 0 0 0;
#X connect 4 0 3 0;
#X connect 4 0 3 1;
#X connect 5 0 4 1;
#X connect 6 0 7 0;
#X connect 6 0 5 0;
#X connect 6 1 8 0;
#X connect 6 2 9 0;
#X connect 10 0 6 0;
