#N canvas 65 81 928 999 10;
#X obj 702 126 *~ 1;
#X obj 1029 517 outlet~;
#X obj 702 88 inlet~;
#X obj 1029 479 *~ 1;
#X obj 869 281 *~;
#X obj 869 207 tgl 15 0 empty empty empty 17 7 0 10 -262144 -1 -1 0
1;
#X obj 763 207 tgl 15 0 empty empty empty 17 7 0 10 -262144 -1 -1 1
1;
#X obj 763 169 == 0;
#X obj 869 169 == 1;
#X obj 763 281 line~;
#X obj 763 243 pack 1 50;
#X obj 701 307 *~;
#X obj 869 270 line~;
#X obj 869 243 pack 1 50;
#X obj 869 319 s~ \$0-bypassedSignal;
#X obj 815 182 tgl 15 0 empty \$0-eq5By eq5By 0 -7 0 10 -262144 -1
-1 0 1;
#X obj 814 88 loadbang;
#X msg 815 144 0;
#X obj 121 300 vsl 20 128 0 1 0 0 eq5_4 b5 empty 0 -9 0 10 -262144
-1 -1 6350 1;
#X obj 147 300 vsl 20 128 0 1 0 0 eq5_5 b6 empty 0 -9 0 10 -262144
-1 -1 7620 1;
#X obj 69 300 vsl 20 128 0 1 0 0 eq5_2 b3 empty 0 -9 0 10 -262144 -1
-1 3810 1;
#X obj 95 300 vsl 20 128 0 1 0 0 eq5_3 b4 empty 0 -9 0 10 -262144 -1
-1 5080 1;
#N canvas 3 56 450 250 (subpatch) 0;
#X array \$0-array1 8 float 5;
#A 0 0.1 0.2 0.3 0.4 0.5 0.6 0.7 0.285718;
#X coords 0 1 7 0 210 140 1 0 0;
#X restore 16 449 graph;
#X obj 16 127 f;
#X obj 114 76 + 1;
#X floatatom 16 165 5 0 0 0 - - -;
#X floatatom 64 170 5 0 0 0 - - -;
#X obj 763 395 mtof;
#X floatatom 745 384 5 0 0 0 - - -;
#X floatatom 763 433 10 0 0 0 - - -;
#X obj 702 443 lop~;
#X msg 763 357 100;
#X obj 763 319 loadbang;
#X text 786 62 (deja la voz audible);
#X floatatom 852 404 5 0 1 2 eq5_pre eq5_pre -;
#X obj 824 443 loadbang;
#X msg 904 466 set \$1;
#X msg 872 497 0.777;
#X obj 702 481 *~;
#X obj 843 537 s eq5_init_pre;
#X obj 702 537 s~ \$0-a_eq5;
#X obj 1030 408 catch~ \$0-de_eq5;
#X obj 304 147 sel 0 1;
#X obj 357 209 del 50;
#X msg 304 247 1;
#X msg 449 247 0;
#X msg 394 247 1;
#X msg 347 248 0;
#X obj 464 541 spigot;
#X obj 436 416 tgl 15 0 empty empty empty 17 7 0 10 -262144 -1 -1 1
1;
#X obj 293 526 spigot;
#X obj 330 416 tgl 15 0 empty empty empty 17 7 0 10 -262144 -1 -1 1
1;
#X obj 13 193 pack f f;
#X obj 162 265 hradio 15 1 0 2 empty empty bar|graph -60 7 0 10 -262144
-1 -1 0;
#X obj 161 666 *~;
#X floatatom 239 666 5 0 1 2 eq5_1 eq5_1 -;
#X obj 311 675 *~;
#X floatatom 404 675 5 0 1 2 eq5_2 eq5_2 -;
#X obj 800 681 *~;
#X floatatom 915 681 5 0 1 2 eq5_5 eq5_5 -;
#X obj 476 689 *~;
#X floatatom 572 677 5 0 1 2 eq5_3 eq5_3 -;
#X obj 640 679 *~;
#X floatatom 733 679 5 0 1 2 eq5_4 eq5_4 -;
#X obj 165 889 lop~ 150;
#X obj 310 892 lop~ 625;
#X obj 311 848 hip~ 150;
#X obj 477 894 lop~ 2500;
#X obj 477 856 hip~ 625;
#X obj 642 866 hip~ 2500;
#X obj 642 896 lop~ 10000;
#X obj 198 720 loadbang;
#X msg 239 701 set \$1;
#X msg 207 758 0.2;
#X obj 334 721 loadbang;
#X msg 404 710 set \$1;
#X msg 372 767 0.3;
#X obj 502 723 loadbang;
#X msg 572 712 set \$1;
#X msg 540 769 0.4;
#X obj 663 725 loadbang;
#X msg 733 714 set \$1;
#X msg 701 771 0.5;
#X obj 849 727 loadbang;
#X msg 915 716 set \$1;
#X msg 883 773 0.6;
#X obj 207 796 s eq5_init_1;
#X obj 351 814 s eq5_init_2;
#X obj 540 807 s eq5_init_3;
#X obj 672 818 s eq5_init_4;
#X obj 838 820 s eq5_init_5;
#X obj 160 620 r~ \$0-a_eq5;
#X obj 310 622 r~ \$0-a_eq5;
#X obj 475 624 r~ \$0-a_eq5;
#X obj 639 626 r~ \$0-a_eq5;
#X obj 799 628 r~ \$0-a_eq5;
#X obj 166 922 throw~ \$0-de_eq5;
#X obj 310 930 throw~ \$0-de_eq5;
#X obj 477 932 throw~ \$0-de_eq5;
#X obj 642 934 throw~ \$0-de_eq5;
#X obj 800 937 throw~ \$0-de_eq5;
#X obj 162 53 loadbang;
#X msg 162 85 0;
#X obj 1099 479 r~ \$0-bypassedSignal;
#X obj 201 265 tgl 15 0 \$0-eq5By bps by 0 -7 0 10 -262144 -1 -1 0
1;
#X obj 304 209 del 50;
#X obj 335 579 tabwrite \$0-array1;
#X obj 62 149 tabread \$0-array1;
#X msg 310 303 0;
#X msg 349 303 1;
#X msg 390 303 2;
#X msg 424 303 3;
#X msg 456 303 4;
#X text 706 62 LO;
#X obj 18 667 *~;
#X floatatom 96 648 5 0 1 2 eq5_0 eq5_0 -;
#X obj 29 717 loadbang;
#X msg 96 713 set \$1;
#X msg 64 759 0.1;
#X obj 18 614 r~ \$0-a_eq5;
#X obj 18 923 throw~ \$0-de_eq5;
#X obj 997 695 *~;
#X floatatom 1112 695 5 0 1 2 eq5_6 eq5_6 -;
#X obj 1046 741 loadbang;
#X msg 1112 730 set \$1;
#X msg 1080 787 0.7;
#X obj 999 628 r~ \$0-a_eq5;
#X obj 997 939 throw~ \$0-de_eq5;
#X obj 1202 672 *~;
#X floatatom 1317 674 5 0 1 2 eq5_7 eq5_7 -;
#X obj 1251 720 loadbang;
#X msg 1317 709 set \$1;
#X msg 1285 766 0.8;
#X obj 1198 632 r~ \$0-a_eq5;
#X obj 1202 918 throw~ \$0-de_eq5;
#X text 1202 598 LO;
#X obj 172 300 vsl 20 128 0 1 0 0 eq5_6 b7 hi 0 -9 0 10 -262144 -1
-1 8890 1;
#X obj 45 300 vsl 20 128 0 1 0 0 eq5_1 b2 empty 0 -9 0 10 -262144 -1
-1 2540 1;
#X obj 199 300 vsl 20 128 0 1 0 0 eq5_7 b8 hi 0 -9 0 10 -262144 -1
-1 10160 1;
#X msg 492 303 5;
#X msg 528 303 6;
#X msg 564 303 7;
#X obj 19 300 vsl 20 128 0 1 0 0 eq5_0 b1 empty 0 -9 0 10 -262144 -1
-1 1270 1;
#X obj 100 120 mod 8;
#X obj 39 239 route 0 1 2 3 4 5 6 7;
#X obj 1035 834 s eq5_init_6;
#X obj 1240 813 s eq5_init_7;
#X obj 64 797 s eq5_init_0;
#X obj 21 274 hsl 70 15 0 1 0 0 eq5_pre pamp preamp -2 -8 0 10 -232576
-1 -1 5361 1;
#X obj 801 865 hip~ 3750;
#X obj 801 908 lop~ 15000;
#X obj 1000 902 lop~ 17500;
#X obj 1001 864 hip~ 4375;
#X obj 1203 880 lop~ 20000;
#X obj 18 892 lop~ 20;
#X obj 164 847 hip~ 34;
#X text 18 249 EQ8;
#X obj 15 17 tgl 15 0 empty empty empty 17 7 0 10 -262144 -1 -1 0 1
;
#X msg 72 23 stop;
#X text 486 580 right inlet \, which node;
#X text 233 582 left \, node val;
#X obj 16 90 metro 50;
#X obj 290 22 r b1;
#X obj 348 27 r b2;
#X obj 405 27 r b3;
#X obj 455 28 r b4;
#X obj 508 27 r b5;
#X obj 559 28 r b6;
#X obj 609 29 r b7;
#X obj 656 26 r b8;
#X obj 715 29 r pamp;
#X obj 782 28 r bps;
#X connect 0 0 4 0;
#X connect 0 0 11 0;
#X connect 2 0 0 0;
#X connect 3 0 1 0;
#X connect 4 0 14 0;
#X connect 5 0 13 0;
#X connect 6 0 10 0;
#X connect 7 0 6 0;
#X connect 8 0 5 0;
#X connect 9 0 11 1;
#X connect 10 0 9 0;
#X connect 11 0 30 0;
#X connect 12 0 4 1;
#X connect 13 0 12 0;
#X connect 15 0 7 0;
#X connect 15 0 8 0;
#X connect 16 0 17 0;
#X connect 17 0 15 0;
#X connect 18 0 112 0;
#X connect 18 0 50 0;
#X connect 19 0 139 0;
#X connect 19 0 50 0;
#X connect 20 0 110 0;
#X connect 20 0 50 0;
#X connect 21 0 111 0;
#X connect 21 0 50 0;
#X connect 23 0 24 0;
#X connect 23 0 107 0;
#X connect 23 0 25 0;
#X connect 24 0 143 0;
#X connect 25 0 52 0;
#X connect 26 0 52 1;
#X connect 27 0 29 0;
#X connect 28 0 27 0;
#X connect 29 0 30 1;
#X connect 30 0 38 0;
#X connect 31 0 28 0;
#X connect 32 0 31 0;
#X connect 34 0 36 0;
#X connect 34 0 38 1;
#X connect 35 0 37 0;
#X connect 36 0 37 0;
#X connect 37 0 39 0;
#X connect 38 0 40 0;
#X connect 41 0 3 0;
#X connect 42 0 105 0;
#X connect 42 1 43 0;
#X connect 43 0 45 0;
#X connect 43 0 46 0;
#X connect 44 0 51 0;
#X connect 44 0 49 0;
#X connect 45 0 51 0;
#X connect 45 0 49 0;
#X connect 46 0 157 0;
#X connect 47 0 157 0;
#X connect 48 0 106 1;
#X connect 49 0 48 1;
#X connect 50 0 106 0;
#X connect 51 0 50 1;
#X connect 52 0 144 0;
#X connect 53 0 42 0;
#X connect 54 0 155 0;
#X connect 55 0 54 1;
#X connect 55 0 72 0;
#X connect 56 0 66 0;
#X connect 57 0 56 1;
#X connect 57 0 75 0;
#X connect 58 0 149 0;
#X connect 59 0 58 1;
#X connect 59 0 84 0;
#X connect 60 0 68 0;
#X connect 61 0 60 1;
#X connect 61 0 78 0;
#X connect 62 0 69 0;
#X connect 63 0 62 1;
#X connect 63 0 81 0;
#X connect 64 0 96 0;
#X connect 65 0 97 0;
#X connect 66 0 65 0;
#X connect 67 0 98 0;
#X connect 68 0 67 0;
#X connect 69 0 70 0;
#X connect 70 0 99 0;
#X connect 71 0 73 0;
#X connect 72 0 73 0;
#X connect 73 0 86 0;
#X connect 74 0 76 0;
#X connect 75 0 76 0;
#X connect 76 0 87 0;
#X connect 77 0 79 0;
#X connect 78 0 79 0;
#X connect 79 0 88 0;
#X connect 80 0 82 0;
#X connect 81 0 82 0;
#X connect 82 0 89 0;
#X connect 83 0 85 0;
#X connect 84 0 85 0;
#X connect 85 0 90 0;
#X connect 91 0 54 0;
#X connect 92 0 56 0;
#X connect 93 0 60 0;
#X connect 94 0 62 0;
#X connect 95 0 58 0;
#X connect 101 0 102 0;
#X connect 102 0 53 0;
#X connect 103 0 3 0;
#X connect 105 0 44 0;
#X connect 105 0 47 0;
#X connect 107 0 26 0;
#X connect 108 0 48 0;
#X connect 109 0 48 0;
#X connect 110 0 48 0;
#X connect 111 0 48 0;
#X connect 112 0 48 0;
#X connect 114 0 154 0;
#X connect 115 0 114 1;
#X connect 115 0 117 0;
#X connect 116 0 118 0;
#X connect 117 0 118 0;
#X connect 118 0 147 0;
#X connect 119 0 114 0;
#X connect 121 0 152 0;
#X connect 122 0 121 1;
#X connect 122 0 124 0;
#X connect 123 0 125 0;
#X connect 124 0 125 0;
#X connect 125 0 145 0;
#X connect 126 0 121 0;
#X connect 128 0 153 0;
#X connect 129 0 128 1;
#X connect 129 0 131 0;
#X connect 130 0 132 0;
#X connect 131 0 132 0;
#X connect 132 0 146 0;
#X connect 133 0 128 0;
#X connect 136 0 140 0;
#X connect 136 0 50 0;
#X connect 137 0 109 0;
#X connect 137 0 50 0;
#X connect 138 0 141 0;
#X connect 139 0 48 0;
#X connect 140 0 48 0;
#X connect 141 0 48 0;
#X connect 142 0 108 0;
#X connect 142 0 50 0;
#X connect 143 0 23 1;
#X connect 144 0 142 0;
#X connect 144 1 137 0;
#X connect 144 2 20 0;
#X connect 144 3 21 0;
#X connect 144 4 18 0;
#X connect 144 5 19 0;
#X connect 144 6 136 0;
#X connect 144 7 138 0;
#X connect 149 0 150 0;
#X connect 150 0 100 0;
#X connect 151 0 127 0;
#X connect 152 0 151 0;
#X connect 153 0 134 0;
#X connect 154 0 120 0;
#X connect 155 0 64 0;
#X connect 157 0 161 0;
#X connect 158 0 161 0;
#X connect 161 0 23 0;
#X coords 0 -1 1 1 218 360 1 12 230;
